<svg xmlns="http://www.w3.org/2000/svg" viewBox="0 0 153.64 180.37"><title>arrowHead</title><g id="Layer_2" data-name="Layer 2"><g id="Layer_1-2" data-name="Layer 1"><g id="Group_81" data-name="Group 81"><path id="Union_42" data-name="Union 42" d="M153.64,5.34V175c0,4.84-3.4,6.77-7.56,4.3L3,94.1c-4-2.36-4-6.23,0-8.59L121.05,15.22c4.16-2.47,7.56-.54,7.56,4.3V130c0,4.83-3.41,6.77-7.56,4.29L53.58,94.1c-4-2.36-4-6.23,0-8.59l42-25c4.16-2.47,7.56-.54,7.56,4.3v3.24a5.56,5.56,0,0,1-2.44,4.3L78.58,85.51c-4,2.36-4,6.23,0,8.59l29.71,17.69c4.16,2.48,7.56.54,7.56-4.29V42.35c0-4.84-3.4-6.77-7.56-4.3L28.58,85.51c-4,2.36-4,6.23,0,8.59l105.23,62.64a5,5,0,0,0,7.56-4.29V6.65a5.57,5.57,0,0,1,2.51-4.34L146.15,1C150.27-1.36,153.64.59,153.64,5.34Z"/></g></g></g></svg>