<svg xmlns="http://www.w3.org/2000/svg" viewBox="0 0 223.88 145.2"><title>Asset 3</title><g id="Layer_2" data-name="Layer 2"><g id="Layer_1-2" data-name="Layer 1"><g id="Group_81" data-name="Group 81"><g id="Union_42" data-name="Union 42"><path d="M143.11,112.7a1.57,1.57,0,0,1-1.12-.47L120.66,90.75a.7.7,0,0,1-.08-.91l6-8.51L116,92a1.57,1.57,0,0,1-1.12.46H63.64a.58.58,0,0,0-.59.59v15.85a1.59,1.59,0,0,1-1.59,1.59,1.67,1.67,0,0,1-.81-.22L29.56,91.74a1.59,1.59,0,0,1,0-2.73L55.22,73.74a1.61,1.61,0,0,1,.81-.22,1.59,1.59,0,0,1,1.58,1.59v24A1.59,1.59,0,0,1,56,100.69a1.64,1.64,0,0,1-.81-.22L40.56,91.74a1.58,1.58,0,0,1,0-2.73l9.12-5.42a1.53,1.53,0,0,1,.81-.23A1.59,1.59,0,0,1,52.07,85v.7A1.6,1.6,0,0,1,51.3,87l-5.43,3.23a.14.14,0,0,0-.07.13.16.16,0,0,0,.07.13l7.74,4.6h.06c.11,0,.17-.05.17-.14V79.3a.15.15,0,0,0-.15-.15L35,90.25a.14.14,0,0,0-.07.13.16.16,0,0,0,.07.13l24.15,14.37h.06c.1,0,.17,0,.17-.14V90.26A1.59,1.59,0,0,1,61,88.67h52.72a.58.58,0,0,0,.41-.17l20-20a1.61,1.61,0,0,1,1.13-.47h2.29a1.59,1.59,0,0,1,1.3,2.49L125.14,90.21l9,8.92-6-8.42a.71.71,0,0,1,.08-.92l21-21.28a1.54,1.54,0,0,1,1.13-.48h2.28a1.59,1.59,0,0,1,1.31,2.49L140.26,90.21l9,8.92-6-8.42a.71.71,0,0,1,.07-.92l21-21.28a1.57,1.57,0,0,1,1.13-.48h2.29a1.61,1.61,0,0,1,1.41.85,1.59,1.59,0,0,1-.11,1.64L155.37,90.21l9,8.92-6-8.42a.71.71,0,0,1,.08-.92l21-21.28a1.56,1.56,0,0,1,1.13-.48h2.29a1.59,1.59,0,0,1,1.3,2.49L170.49,90.21l9.58,9.47-5.95-8.79a.72.72,0,0,1,.59-1.12h2.86a.72.72,0,0,1,.59.31L192,110.22a1.59,1.59,0,0,1-1.31,2.48h-2.21a1.57,1.57,0,0,1-1.12-.47L166,90.75a.7.7,0,0,1-.07-.92l6-8.54-9,9,13.9,19.87a1.61,1.61,0,0,1,.11,1.65,1.58,1.58,0,0,1-1.41.85h-2.18a1.59,1.59,0,0,1-1.13-.47L150.9,90.75a.7.7,0,0,1-.08-.91l6.05-8.55-9.05,9,13.9,19.87a1.59,1.59,0,0,1-1.3,2.5h-2.19a1.57,1.57,0,0,1-1.12-.47L135.77,90.75a.71.71,0,0,1-.07-.91l6-8.54-9,9,13.9,19.87a1.59,1.59,0,0,1-1.3,2.5Z"/></g></g><path d="M49.69,138a5.27,5.27,0,0,1-1.9-2,3.45,3.45,0,0,1-.31-2.23.38.38,0,0,1,.21-.28.55.55,0,0,1,.36,0l2.87.67a.93.93,0,0,1,.4.18,1.11,1.11,0,0,1,.29.36,2.24,2.24,0,0,0,.7,1,3.45,3.45,0,0,0,1.53.66,3.88,3.88,0,0,0,1.88,0,1,1,0,0,0,.82-.81.9.9,0,0,0-.18-.77,3,3,0,0,0-.93-.71c-.45-.24-1.09-.55-1.94-.92A8.91,8.91,0,0,1,50,130.76a3.47,3.47,0,0,1-.6-3.16,3.87,3.87,0,0,1,1.26-2.09,4.91,4.91,0,0,1,2.4-1.07,8.3,8.3,0,0,1,3.19.12,8,8,0,0,1,3,1.29,5.68,5.68,0,0,1,1.76,2,3.28,3.28,0,0,1,.42,2,.49.49,0,0,1-.19.3.45.45,0,0,1-.34.07l-3-.59a.83.83,0,0,1-.65-.52,1.28,1.28,0,0,0-.5-.86,2.81,2.81,0,0,0-1.24-.58,2.65,2.65,0,0,0-1.44,0,1,1,0,0,0-.68.79,1,1,0,0,0,.43,1.07,9.76,9.76,0,0,0,2.23,1.2,15.84,15.84,0,0,1,3,1.52A4.16,4.16,0,0,1,60.59,134a4.06,4.06,0,0,1-1.14,4.49,5.32,5.32,0,0,1-2.68,1.12,10.12,10.12,0,0,1-3.59-.18A9.83,9.83,0,0,1,49.69,138Z"/><path d="M63.93,140a5.17,5.17,0,0,1-1-4.59c.5-2.81,1-5.62,1.51-8.43a.57.57,0,0,1,.22-.36.51.51,0,0,1,.4-.08l2.87.49a.55.55,0,0,1,.46.63L67,136.05a2.63,2.63,0,0,0,.33,2,2.52,2.52,0,0,0,1.74.94,2.47,2.47,0,0,0,2-.38,2.61,2.61,0,0,0,.93-1.82c.41-2.82.81-5.63,1.22-8.44a.48.48,0,0,1,.21-.36.55.55,0,0,1,.41-.11l2.86.4a.53.53,0,0,1,.48.61c-.37,2.83-.73,5.66-1.1,8.5a5.21,5.21,0,0,1-2.32,4.07,7.46,7.46,0,0,1-5.11.73A7.53,7.53,0,0,1,63.93,140Z"/><path d="M78.41,143.18a.49.49,0,0,1-.13-.39q.8-6.76,1.6-13.53a.54.54,0,0,1,.19-.37.51.51,0,0,1,.4-.11q3,.34,6,.62a7,7,0,0,1,4.21,1.6A4.38,4.38,0,0,1,92,134.74a4.11,4.11,0,0,1-1.87,3.45,7.25,7.25,0,0,1-4.55.81l-2.5-.24c-.15,1.5-.3,3-.46,4.51a.51.51,0,0,1-.19.35.55.55,0,0,1-.42.11l-3.2-.35A.57.57,0,0,1,78.41,143.18ZM85.72,136a2,2,0,0,0,1.43-.33,1.65,1.65,0,0,0,.62-1.28,1.91,1.91,0,0,0-.34-1.36,1.88,1.88,0,0,0-1.38-.63l-2.39-.23c-.12,1.2-.24,2.39-.37,3.59Z"/><path d="M93.54,144.53a.48.48,0,0,1-.15-.38q.42-6.79.85-13.6a.54.54,0,0,1,.17-.38.48.48,0,0,1,.39-.13c2,.12,4,.21,6,.29a6.9,6.9,0,0,1,4.29,1.36,4.37,4.37,0,0,1,1.53,3.66,4.16,4.16,0,0,1-1.67,3.55,7.23,7.23,0,0,1-4.5,1.06l-2.5-.1-.21,4.53a.52.52,0,0,1-.18.36.55.55,0,0,1-.41.14l-3.21-.18A.55.55,0,0,1,93.54,144.53Zm6.89-7.57a2,2,0,0,0,1.41-.41,1.69,1.69,0,0,0,.55-1.32,1.68,1.68,0,0,0-1.83-1.88l-2.39-.1c-.06,1.2-.11,2.4-.17,3.6Z"/><path d="M108.71,145a.51.51,0,0,1-.17-.37l.09-13.65a.49.49,0,0,1,.16-.38.55.55,0,0,1,.37-.14h3a.48.48,0,0,1,.39.14.5.5,0,0,1,.15.38c0,3.62.07,7.25.1,10.87,2.21,0,4.42-.06,6.63-.14a.59.59,0,0,1,.41.14.53.53,0,0,1,.18.39c0,.74,0,1.48.08,2.22a.47.47,0,0,1-.15.39.65.65,0,0,1-.41.16c-3.47.11-6.93.16-10.4.15A.53.53,0,0,1,108.71,145Z"/><path d="M123.91,144.7a.48.48,0,0,1-.19-.35c-.07-1.49-.15-3-.22-4.47q-2.76-4.4-5.34-8.83a.39.39,0,0,1,0-.53.4.4,0,0,1,.3-.15l2.8-.1a.76.76,0,0,1,.49.12.91.91,0,0,1,.29.3q1.59,2.56,3.24,5.12c.91-1.82,1.79-3.63,2.65-5.45a1,1,0,0,1,.25-.34.87.87,0,0,1,.48-.18c.93-.06,1.86-.13,2.78-.21a.43.43,0,0,1,.32.11.41.41,0,0,1,.16.29.4.4,0,0,1,0,.24q-2.07,4.69-4.31,9.37c.1,1.49.2,3,.29,4.47a.45.45,0,0,1-.14.38.6.6,0,0,1-.4.18l-3.07.17A.51.51,0,0,1,123.91,144.7Z"/><path d="M140.38,142.29a5.32,5.32,0,0,1-2.36-4c-.06-.38-.13-1-.22-1.84s-.14-1.49-.17-1.88a5.53,5.53,0,0,1,1.42-4.39,7.32,7.32,0,0,1,4.53-2,9.29,9.29,0,0,1,3.44.15,5.63,5.63,0,0,1,2.61,1.39,4.7,4.7,0,0,1,1.33,2.56.38.38,0,0,1-.09.33.47.47,0,0,1-.31.18c-1,.16-2,.31-3,.45a.71.71,0,0,1-.46-.05.94.94,0,0,1-.31-.39,2.47,2.47,0,0,0-1.1-1.3,2.83,2.83,0,0,0-1.66-.19c-1.6.21-2.32,1.18-2.17,2.94,0,.37.09,1,.18,1.73s.17,1.37.24,1.77c.26,1.74,1.23,2.52,2.89,2.3a3,3,0,0,0,1.6-.63,2.42,2.42,0,0,0,.74-1.55.75.75,0,0,1,.17-.46.79.79,0,0,1,.45-.18l3.09-.45a.49.49,0,0,1,.35.07.39.39,0,0,1,.19.29,4.43,4.43,0,0,1-.52,2.84A5.63,5.63,0,0,1,149,142a9.51,9.51,0,0,1-3.46,1.09A7.64,7.64,0,0,1,140.38,142.29Z"/><path d="M156,140.09a5.37,5.37,0,0,1-2.61-3.89c-.07-.38-.18-1-.31-1.78s-.22-1.4-.27-1.8a5.59,5.59,0,0,1,1.15-4.53,7.38,7.38,0,0,1,4.42-2.32,7.26,7.26,0,0,1,4.94.55,5.56,5.56,0,0,1,2.74,3.79c.2.78.34,1.38.43,1.77s.2,1,.34,1.78a5.36,5.36,0,0,1-1,4.57,9.1,9.1,0,0,1-9.83,1.86Zm6.29-3.56a2.79,2.79,0,0,0,.33-2.13c-.14-.8-.23-1.37-.3-1.71s-.2-.9-.38-1.66a2.84,2.84,0,0,0-1.09-1.85,2.81,2.81,0,0,0-3.54.67A2.89,2.89,0,0,0,157,132c.06.39.15.95.28,1.68s.24,1.31.33,1.71a2.81,2.81,0,0,0,1.08,1.86,2.54,2.54,0,0,0,1.95.31A2.49,2.49,0,0,0,162.28,136.53Z"/><path d="M170.13,138.41a.5.5,0,0,1-.25-.33l-.6-2.71a.46.46,0,0,1,.08-.41.56.56,0,0,1,.36-.25c.95-.21,1.91-.43,2.86-.66a.52.52,0,0,1,.42.06.5.5,0,0,1,.24.34c.22.9.43,1.8.65,2.7a.5.5,0,0,1-.07.39.56.56,0,0,1-.36.25l-2.89.67A.6.6,0,0,1,170.13,138.41Z"/><path d="M20.59,60.82Q10.93,38,.27,15.42l-.22-.57a1.45,1.45,0,0,1,.24-1.24,1.89,1.89,0,0,1,1.16-.74q3.81-.9,7.62-1.74a3.08,3.08,0,0,1,1.69,0,1.69,1.69,0,0,1,.92,1q7.09,16,13.7,32.15,1.36-11.52,3.08-23.06a2.85,2.85,0,0,1,2.4-2.36q2.3-.41,4.59-.78a2.61,2.61,0,0,1,1.84.28,3,3,0,0,1,1.13,1.17Q43.9,29.83,49,40.25q.84-17.41,2.17-34.86c0-1,.78-1.64,2.21-1.81C56,3.26,58.56,3,61.14,2.69A1.81,1.81,0,0,1,62.39,3,1.49,1.49,0,0,1,63,4.1a2,2,0,0,1,0,.62Q60.44,29.5,58.92,54.29a2.55,2.55,0,0,1-.67,1.77,2.9,2.9,0,0,1-1.8.84l-5.18.71a2.74,2.74,0,0,1-1.84-.3,2.81,2.81,0,0,1-1.11-1.19q-6.15-11.85-12.8-23.54Q33.12,45.81,31.23,59a2.59,2.59,0,0,1-2.29,2.38c-1.72.34-3.43.69-5.15,1A2.64,2.64,0,0,1,20.59,60.82Z"/><path d="M77.67,54.13A1.74,1.74,0,0,1,77,52.88Q75,28.19,73,3.49a1.76,1.76,0,0,1,.45-1.41,2.08,2.08,0,0,1,1.46-.65Q93.92,0,113,0a2.23,2.23,0,0,1,1.55.54,1.73,1.73,0,0,1,.59,1.37l0,5.1a1.69,1.69,0,0,1-.6,1.33,2.32,2.32,0,0,1-1.53.49q-13.9,0-27.8.76.39,6.66.76,13.3,12.59-.7,25.2-.74a2.11,2.11,0,0,1,1.48.53,1.82,1.82,0,0,1,.57,1.38c0,1.59,0,3.19,0,4.79a1.67,1.67,0,0,1-.57,1.33,2.14,2.14,0,0,1-1.46.5q-12.36,0-24.73.72.39,6.89.79,13.76,13.14-.75,26.32-.7a2,2,0,0,1,1.41.5,1.73,1.73,0,0,1,.54,1.34c0,1.72,0,3.45,0,5.17a1.71,1.71,0,0,1-.54,1.33,2,2,0,0,1-1.39.49Q96.24,53.23,79,54.56A1.81,1.81,0,0,1,77.67,54.13Z"/><path d="M132,52.46a18.57,18.57,0,0,1-7.31-5.69,12.76,12.76,0,0,1-2.56-7.38,1.65,1.65,0,0,1,1.71-1.55c2.41.06,4.83.15,7.24.25a2.49,2.49,0,0,1,1.41.44,4.38,4.38,0,0,1,1,1.12,8,8,0,0,0,3.36,4.52,14.75,14.75,0,0,0,7.51,2.25c3.64.27,6.43-.08,8.4-1.09A5.63,5.63,0,0,0,156,40.71a4.5,4.5,0,0,0-1.1-3.55,12,12,0,0,0-4.14-2.79,87.37,87.37,0,0,0-8.55-3.14c-6.26-1.84-10.86-3.9-13.78-6.35S124,19.06,124.16,14.7a12.25,12.25,0,0,1,2.93-7.8,17.31,17.31,0,0,1,8-5.12A30.92,30.92,0,0,1,147.19.53a29.88,29.88,0,0,1,12.16,3.26,19.25,19.25,0,0,1,7.25,6.33,11.32,11.32,0,0,1,2,6.88,1.51,1.51,0,0,1-.63,1,1.71,1.71,0,0,1-1.31.34q-3.94-.47-7.91-.86a2.57,2.57,0,0,1-2.37-1.61,5.91,5.91,0,0,0-2.9-4.36,16.38,16.38,0,0,0-14.4-1.09,5.08,5.08,0,0,0-2.9,4.49,4.76,4.76,0,0,0,1.15,3.49,11.35,11.35,0,0,0,4,2.64c1.83.81,4.5,1.76,8,2.91a52.43,52.43,0,0,1,11.24,4.51A14.41,14.41,0,0,1,166.33,34a12.57,12.57,0,0,1,1.08,7.57,13.77,13.77,0,0,1-3.82,8.16,17.78,17.78,0,0,1-8.32,4.63,34.33,34.33,0,0,1-11.62.89A33.06,33.06,0,0,1,132,52.46Z"/><path d="M185.93,59.19a1.72,1.72,0,0,1-.31-1.37q3.58-20.67,7.19-41.32-7.76-1.35-15.52-2.44a2.12,2.12,0,0,1-1.36-.72,1.77,1.77,0,0,1-.4-1.44c.25-1.89.51-3.77.76-5.66A1.79,1.79,0,0,1,177,5a2.08,2.08,0,0,1,1.57-.32q21.9,3.06,43.55,8.15a2.2,2.2,0,0,1,1.39.88,1.71,1.71,0,0,1,.28,1.47c-.45,1.85-.89,3.7-1.34,5.55a1.76,1.76,0,0,1-.9,1.2,2.25,2.25,0,0,1-1.61.16q-7.64-1.8-15.31-3.33l-8.25,41.12a1.77,1.77,0,0,1-2.17,1.43c-2.37-.46-4.75-.91-7.13-1.33A1.8,1.8,0,0,1,185.93,59.19Z"/><path d="M4.09,93.61q-.12,0-.12-.24v0l.22-6.48c0-.18,0-.27.12-.28h.77a.29.29,0,0,1,.13,0,.39.39,0,0,1,.07.18l.82,4.62,0,0s0,0,0,0,0,0,0,0L7,86.84c0-.16.09-.24.19-.25H8c.08,0,.12.1.12.28l.23,6.48v0c0,.16-.05.23-.13.23H7.65c-.08,0-.12-.08-.13-.26l-.15-5s0,0,0,0,0,0,0,0l-.88,5.06c0,.16-.09.23-.17.23H6c-.08,0-.13-.07-.16-.23l-.87-5s0,0,0,0v0l-.16,5c0,.18,0,.26-.11.26Z"/><path d="M9.11,93.61s-.07,0-.07-.14v-.16l1.1-6.47c0-.16.09-.24.18-.25h1c.09,0,.15.09.18.25l1.08,6.47a.13.13,0,0,0,0,0,.15.15,0,0,0,0,.07v0c0,.09,0,.13-.09.13h-.8c-.08,0-.13-.06-.15-.2l-.18-1.24c0-.07,0-.11-.06-.11H10.13s0,0-.05.11l-.21,1.24a.37.37,0,0,1,0,.16.08.08,0,0,1-.08,0Zm1.16-2.16h1s0,0,0-.09,0,0,0,0l-.48-3.77a0,0,0,0,0,0,0s0,0,0,0l-.57,3.76a.13.13,0,0,0,0,0C10.2,91.42,10.22,91.45,10.27,91.45Z"/><path d="M13.48,93.61a.1.1,0,0,1-.09,0,.29.29,0,0,1,0-.17V86.79a.28.28,0,0,1,0-.16.1.1,0,0,1,.09,0h1.68a1.6,1.6,0,0,1,.75.17,1.55,1.55,0,0,1,.55.56,3.1,3.1,0,0,1,.36,1.08,9.62,9.62,0,0,1,.12,1.65c0,.47,0,.87-.05,1.23a6.87,6.87,0,0,1-.11.91,2.34,2.34,0,0,1-.2.63,1.61,1.61,0,0,1-.28.42,1,1,0,0,1-.35.24,2.38,2.38,0,0,1-.42.11l-.5,0Zm.9-.77H15a.75.75,0,0,0,.58-.23,1.75,1.75,0,0,0,.3-.82,10.74,10.74,0,0,0,.1-1.72,10.16,10.16,0,0,0-.11-1.65,1.78,1.78,0,0,0-.32-.83.66.66,0,0,0-.52-.22h-.64s-.06,0-.06.11v5.25C14.32,92.8,14.34,92.84,14.38,92.84Z"/><path d="M18.05,93.61a.13.13,0,0,1-.1,0,.32.32,0,0,1,0-.17V86.8a.32.32,0,0,1,0-.17.13.13,0,0,1,.1,0h2.63a.09.09,0,0,1,0,.06.35.35,0,0,1,0,.13v.38a.28.28,0,0,1,0,.16.1.1,0,0,1-.09,0H19s-.06,0-.06.16v2a.28.28,0,0,0,0,.09s0,0,0,0h1.34c.08,0,.12.08.12.23v.37c0,.15,0,.23-.12.23H18.94s0,0,0,.05a.31.31,0,0,0,0,.1v2.23H20.7s0,0,0,.05a.39.39,0,0,1,0,.13v.39a.3.3,0,0,1,0,.16.17.17,0,0,1-.1,0Z"/><path d="M192.34,93.61h-.07a.09.09,0,0,1,0-.06.63.63,0,0,1,0-.16V86.82a.36.36,0,0,1,0-.18.12.12,0,0,1,.1,0h.78s0,0,0,.07a.61.61,0,0,1,0,.15v6.56a.38.38,0,0,1,0,.19.1.1,0,0,1-.09,0Z"/><path d="M194.43,93.61a.09.09,0,0,1-.09,0,.38.38,0,0,1,0-.19V86.85c0-.17,0-.26.12-.26h.75c.06,0,.12.07.17.19L197,91.23s0,0,0,0V86.85c0-.17.05-.26.13-.26h.58c.09,0,.13.09.13.26v6.54a.38.38,0,0,1,0,.19.13.13,0,0,1-.1,0h-.52a.15.15,0,0,1-.11-.06.38.38,0,0,1-.09-.15l-1.84-4.8s0,0,0,0v4.74a.38.38,0,0,1,0,.19.12.12,0,0,1-.11,0Z"/><path d="M201,93.61a.1.1,0,0,1-.09,0,.38.38,0,0,1,0-.19V87.5c0-.08,0-.12-.05-.12h-.92s0,0,0-.05a.39.39,0,0,1,0-.13v-.38a.36.36,0,0,1,0-.18.15.15,0,0,1,.1,0h2.76a.13.13,0,0,1,.09,0,.36.36,0,0,1,0,.18v.38a.28.28,0,0,1,0,.16s0,0-.09,0h-.84s0,0,0,.12v5.88a.38.38,0,0,1,0,.19.11.11,0,0,1-.1,0Z"/><path d="M203.64,93.61a.12.12,0,0,1-.09,0,.32.32,0,0,1,0-.17V86.8a.32.32,0,0,1,0-.17.13.13,0,0,1,.09,0h2.63s0,0,0,.06a.42.42,0,0,1,0,.13v.38a.28.28,0,0,1,0,.16.1.1,0,0,1-.09,0h-1.67s-.06,0-.06.16v2a.29.29,0,0,0,0,.09s0,0,0,0h1.34c.09,0,.13.08.13.23v.37c0,.15,0,.23-.13.23h-1.33s0,0,0,.05a.3.3,0,0,0,0,.1v2.23h1.81s0,0,.05.05a.45.45,0,0,1,0,.13v.39a.3.3,0,0,1,0,.16.12.12,0,0,1-.09,0Z"/><path d="M206.92,93.61s0,0,0-.13a.39.39,0,0,1,0-.14l1.22-3.13L207,86.88a.8.8,0,0,1,0-.16c0-.08,0-.13.05-.13h.95c.08,0,.16.09.22.26l.62,1.79.69-1.8c.06-.17.14-.25.23-.25h.58s.06,0,.06.13a.51.51,0,0,1,0,.13l-1.13,2.89,1.21,3.59a.26.26,0,0,1,0,.14c0,.09,0,.14-.07.14h-.87c-.09,0-.16-.08-.22-.25l-.72-2.07-.82,2.08q-.09.24-.21.24Z"/><path d="M210.91,93.61s-.07,0-.07-.14v-.16l1.1-6.47c0-.16.08-.24.18-.25h1c.09,0,.15.09.18.25l1.08,6.47v0a.2.2,0,0,1,0,.07v0c0,.09,0,.13-.08.13h-.8c-.08,0-.13-.06-.16-.2l-.18-1.24c0-.07,0-.11,0-.11h-1.18s0,0-.05.11l-.21,1.24a.37.37,0,0,1,0,.16.1.1,0,0,1-.09,0Zm1.16-2.16h1s0,0,0-.09,0,0,0,0l-.48-3.77s0,0,0,0,0,0,0,0L212,91.31v0C212,91.42,212,91.45,212.07,91.45Z"/><path d="M216.58,86.51a1.72,1.72,0,0,1,1.43.67.3.3,0,0,1,.05.15.61.61,0,0,1-.15.37c-.09.12-.17.19-.24.19l0,0a1.29,1.29,0,0,0-1-.53.64.64,0,0,0-.54.28,1.18,1.18,0,0,0-.21.7A1,1,0,0,0,216,89a2,2,0,0,0,.5.45l.62.4a2.09,2.09,0,0,1,1,1.86,2.28,2.28,0,0,1-.46,1.46,1.48,1.48,0,0,1-1.22.57,1.86,1.86,0,0,1-1.63-.9.18.18,0,0,1,0-.11.69.69,0,0,1,.14-.37q.13-.21.27-.21a.1.1,0,0,1,.08.05,1.55,1.55,0,0,0,1.17.7.71.71,0,0,0,.6-.3,1.28,1.28,0,0,0,.21-.75,1.2,1.2,0,0,0-.17-.66,1.65,1.65,0,0,0-.52-.49l-.63-.42a3.57,3.57,0,0,1-.35-.28,2.86,2.86,0,0,1-.3-.36,1.69,1.69,0,0,1-.21-.49,2.52,2.52,0,0,1,.35-2A1.41,1.41,0,0,1,216.58,86.51Z"/></g></g></svg>