<svg xmlns="http://www.w3.org/2000/svg" viewBox="0 0 50.01 46.29">
  <g data-name="Layer 2">
    <path d="M25.23 0l.06 8.4c.47.24 1 .52 1.47.8l1.73.46a1.16 1.16 0 0 0 .25.29 9.87 9.87 0 0 1 2 .2c.07.17.19.3.26.47.37-.55.85-.47 1.39-.35l4.52 1a1 1 0 0 0 0-.17c.5 0 .29.84.94.55.08 0 .14-.11.2-.19l3.75-.24.21-.05 3.48.52 2.52 1 .05 7c1 1 1 2.51 1.91 3.47 0 1.79-.37 3.46-.55 5.19l-.06.08-.36 1.12v.05c-1.18.51-2.42 1.1-3.63 1.53.17-.35.59-.5.85-.78-.32-.05-.55.1-.85.08 0-.33.14-.7.1-1.05-.34.15-.62.75-1.06.36a2.8 2.8 0 0 1 .42 1.64l-1 .5c0 .16-.09.42-.08.5l.08-.08a3.38 3.38 0 0 1-1.33 1.27c-1 .59-2.07 1.16-3 1.74l.23-.75a1.75 1.75 0 0 0 0-.51c-.19.24-.65.32-.58.55-.28-.16-.83-.08-.91-.5-.25 0-.06.22-.12.36.23.32.76.34.83.75l-1 .5c-.1-.12-.2-.37-.41-.44-.15.39.25.73 0 1.17l-.12.05-1.7 2.22a14.18 14.18 0 0 1-.67 1.62c-.32-.46-.78.35-1-.24-.12.68.68.25 1 .37a1.38 1.38 0 0 1-.36 1.44c.32 1.18.7 2.3.93 3.52l.42.06c.2.2.16.46.17.78-.6.06-1.13 0-1.75 0-1.71-1.22-4.2-.68-5.69-2-.72-.78-.61-2-1.36-2.74L25 37.23a10.23 10.23 0 0 0-.88-1.3 26.55 26.55 0 0 0-1.94-4 5.69 5.69 0 0 1-2.33-2.18 25.27 25.27 0 0 0-2.64-.36c-1.09-.65-1 .7-2.08.36-.73.41-.58 1.55-.83 2.32l-.8 1.06a5.32 5.32 0 0 1-1.5-.37c-1-1.19-2.74-1.11-3.77-2.3l-1.56-4.34c-.46-.69-1.4-.82-2.08-1.25l-2.08-2.41c-.24-.11-.6 0-.83-.14L.25 20.84a1.42 1.42 0 0 1-.23-1c4.5-.1 9-.05 13.51-.1.07-6.58-.14-13.24.22-19.7h11.48" data-name="Layer 1"/>
  </g>
</svg>
